<svg width="22" height="23" viewBox="0 0 22 23" fill="none" xmlns="http://www.w3.org/2000/svg">
<path fill-rule="evenodd" clip-rule="evenodd" d="M19.25 9.80445V16.9696C19.25 19.0114 17.6084 20.6666 15.5833 20.6666H6.41667C4.39162 20.6666 2.75 19.0114 2.75 16.9696V9.80445C2.75 8.6944 3.24467 7.6431 4.09737 6.94096L8.6807 3.16688C10.0304 2.05546 11.9696 2.05546 13.3193 3.16688L17.9026 6.94096C18.7553 7.6431 19.25 8.6944 19.25 9.80445ZM9.16667 16.3125C8.78697 16.3125 8.47917 16.6203 8.47917 17C8.47917 17.3797 8.78697 17.6875 9.16667 17.6875H12.8333C13.213 17.6875 13.5208 17.3797 13.5208 17C13.5208 16.6203 13.213 16.3125 12.8333 16.3125H9.16667Z" fill="#249FDA"/>
</svg>
