<svg width="21" height="22" viewBox="0 0 21 22" fill="none" xmlns="http://www.w3.org/2000/svg">
<path fill-rule="evenodd" clip-rule="evenodd" d="M7.65625 3.6145C7.65625 2.52719 8.53769 1.64575 9.625 1.64575H11.375C12.4623 1.64575 13.3438 2.52719 13.3438 3.6145V4.4895H7.65625V3.6145ZM6.34375 4.4895V3.6145C6.34375 1.80232 7.81282 0.333252 9.625 0.333252H11.375C13.1872 0.333252 14.6562 1.80232 14.6562 3.6145V4.4895H15.75C17.683 4.4895 19.25 6.05651 19.25 7.9895V9.01578C18.6429 9.30825 17.881 9.65833 17.0365 10.0081C15.4643 10.6593 13.662 11.2853 12.0551 11.5611C11.764 10.9988 11.1769 10.6145 10.5 10.6145C9.82313 10.6145 9.23602 10.9988 8.94492 11.5611C7.33795 11.2853 5.53565 10.6593 3.96343 10.0081C3.11902 9.65834 2.35711 9.30826 1.75 9.0158V7.9895C1.75 6.05651 3.317 4.4895 5.25 4.4895H6.34375ZM17.5388 11.2207C18.1625 10.9623 18.7419 10.7042 19.25 10.4679V14.9895C19.25 16.9225 17.683 18.4895 15.75 18.4895H5.25C3.317 18.4895 1.75 16.9225 1.75 14.9895V10.4679C2.2581 10.7042 2.83745 10.9624 3.46116 11.2207C5.06465 11.8849 7.01889 12.5751 8.82448 12.8712C9.04175 13.5906 9.7097 14.1145 10.5 14.1145C11.2903 14.1145 11.9582 13.5906 12.1755 12.8712C13.9811 12.5751 15.9353 11.8849 17.5388 11.2207Z" fill="#249FDA"/>
</svg>
