<svg width="23" height="23" viewBox="0 0 23 23" fill="none" xmlns="http://www.w3.org/2000/svg">
<path fill-rule="evenodd" clip-rule="evenodd" d="M10.8101 3.25H12.5601C13.5266 3.25 14.3101 3.98873 14.3101 4.9C14.3101 5.94282 15.4258 6.60581 16.3417 6.10723L16.4348 6.05659C17.2718 5.60096 18.3421 5.87135 18.8253 6.66054L19.7003 8.08948C20.1836 8.87866 19.8968 9.88778 19.0598 10.3434C18.1434 10.8422 18.1434 12.1578 19.0598 12.6566C19.8968 13.1122 20.1836 14.1213 19.7003 14.9105L18.8253 16.3395C18.3421 17.1286 17.2718 17.399 16.4348 16.9434L16.3417 16.8928C15.4258 16.3942 14.3101 17.0572 14.3101 18.1C14.3101 19.0113 13.5266 19.75 12.5601 19.75H10.8101C9.84355 19.75 9.06005 19.0113 9.06005 18.1C9.06005 17.0572 7.94429 16.3942 7.02839 16.8928L6.93536 16.9434C6.09835 17.3991 5.02806 17.1287 4.54481 16.3395L3.66981 14.9105C3.18656 14.1214 3.47334 13.1122 4.31035 12.6566C5.22669 12.1578 5.22669 10.8422 4.31036 10.3434C3.47334 9.88777 3.18656 8.87865 3.66981 8.08946L4.54481 6.66052C5.02806 5.87134 6.09835 5.60095 6.93536 6.05658L7.02839 6.10722C7.94429 6.6058 9.06005 5.94281 9.06005 4.9C9.06005 3.98873 9.84355 3.25 10.8101 3.25ZM11.6851 14.25C13.2038 14.25 14.4351 13.0188 14.4351 11.5C14.4351 9.98122 13.2038 8.75 11.6851 8.75C10.1663 8.75 8.93507 9.98122 8.93507 11.5C8.93507 13.0188 10.1663 14.25 11.6851 14.25Z" fill="#249FDA"/>
</svg>
