<svg width="22" height="22" viewBox="0 0 22 22" fill="none" xmlns="http://www.w3.org/2000/svg">
<path fill-rule="evenodd" clip-rule="evenodd" d="M8.15625 3.6145C8.15625 2.52719 9.03769 1.64575 10.125 1.64575H11.875C12.9623 1.64575 13.8438 2.52719 13.8438 3.6145V4.4895H8.15625V3.6145ZM6.84375 4.4895V3.6145C6.84375 1.80232 8.31282 0.333252 10.125 0.333252H11.875C13.6872 0.333252 15.1562 1.80232 15.1562 3.6145V4.4895H16.25C18.183 4.4895 19.75 6.05651 19.75 7.9895V9.01578C19.1429 9.30825 18.381 9.65833 17.5365 10.0081C15.9643 10.6593 14.162 11.2853 12.5551 11.5611C12.264 10.9988 11.6769 10.6145 11 10.6145C10.3231 10.6145 9.73602 10.9988 9.44492 11.5611C7.83795 11.2853 6.03565 10.6593 4.46343 10.0081C3.61902 9.65834 2.85711 9.30826 2.25 9.0158V7.9895C2.25 6.05651 3.817 4.4895 5.75 4.4895H6.84375ZM18.0388 11.2207C18.6625 10.9623 19.2419 10.7042 19.75 10.4679V14.9895C19.75 16.9225 18.183 18.4895 16.25 18.4895H5.75C3.817 18.4895 2.25 16.9225 2.25 14.9895V10.4679C2.7581 10.7042 3.33745 10.9624 3.96116 11.2207C5.56465 11.8849 7.51889 12.5751 9.32448 12.8712C9.54175 13.5906 10.2097 14.1145 11 14.1145C11.7903 14.1145 12.4582 13.5906 12.6755 12.8712C14.4811 12.5751 16.4353 11.8849 18.0388 11.2207Z" fill="#6C757D"/>
</svg>
