<svg width="24" height="25" viewBox="0 0 24 25" fill="none" xmlns="http://www.w3.org/2000/svg">
<path fill-rule="evenodd" clip-rule="evenodd" d="M12.25 3.60414V6.5C12.25 9.12335 14.3766 11.25 17 11.25H19.8959C19.9645 11.545 20 11.8491 20 12.1569V17.5C20 19.7091 18.2091 21.5 16 21.5H8C5.79086 21.5 4 19.7091 4 17.5V7.5C4 5.29086 5.79086 3.5 8 3.5H11.3431C11.6509 3.5 11.955 3.53547 12.25 3.60414ZM13.75 4.30513V6.5C13.75 8.29493 15.2051 9.75 17 9.75H19.1949C19.0833 9.60195 18.961 9.46101 18.8284 9.32843L14.1716 4.67157C14.039 4.53899 13.898 4.41667 13.75 4.30513ZM7.25 12.5C7.25 12.0858 7.58579 11.75 8 11.75H12C12.4142 11.75 12.75 12.0858 12.75 12.5C12.75 12.9142 12.4142 13.25 12 13.25H8C7.58579 13.25 7.25 12.9142 7.25 12.5ZM8 15.75C7.58579 15.75 7.25 16.0858 7.25 16.5C7.25 16.9142 7.58579 17.25 8 17.25H16C16.4142 17.25 16.75 16.9142 16.75 16.5C16.75 16.0858 16.4142 15.75 16 15.75H8Z" fill="#6C757D"/>
</svg>
