<svg width="23" height="23" viewBox="0 0 23 23" fill="none" xmlns="http://www.w3.org/2000/svg">
<path fill-rule="evenodd" clip-rule="evenodd" d="M6.3893 17.0002H16.9808C18.6568 17.0002 19.6135 15.3144 18.6079 14.133C18.1627 13.61 17.8884 12.9897 17.8146 12.3392L17.6642 11.0141C17.507 11.0323 17.3471 11.0417 17.185 11.0417C14.9068 11.0417 13.06 9.19484 13.06 6.91667C13.06 6.0267 13.3418 5.20256 13.8211 4.52863L13.7658 4.50941V4.41434C13.7658 3.26516 12.8342 2.33356 11.6851 2.33356C10.5359 2.33356 9.60427 3.26516 9.60427 4.41434V4.50941C7.64041 5.18182 6.18652 6.77997 5.96548 8.72748L5.55556 12.3392C5.48173 12.9897 5.20738 13.61 4.76219 14.133C3.75658 15.3144 4.71329 17.0002 6.3893 17.0002ZM19.9351 6.91667C19.9351 8.43545 18.7038 9.66667 17.1851 9.66667C15.6663 9.66667 14.4351 8.43545 14.4351 6.91667C14.4351 5.39788 15.6663 4.16667 17.1851 4.16667C18.7038 4.16667 19.9351 5.39788 19.9351 6.91667ZM11.6851 20.6669C12.9285 20.6669 13.9902 19.9328 14.4095 18.8991C14.427 18.856 14.4351 18.8097 14.4351 18.7632C14.4351 18.5488 14.2613 18.375 14.0469 18.375H9.32326C9.10886 18.375 8.93506 18.5488 8.93506 18.7632C8.93506 18.8097 8.94315 18.856 8.96064 18.8991C9.3799 19.9328 10.4416 20.6669 11.6851 20.6669Z" fill="#6C757D"/>
</svg>
