<svg width="23" height="23" viewBox="0 0 23 23" fill="none" xmlns="http://www.w3.org/2000/svg">
<path fill-rule="evenodd" clip-rule="evenodd" d="M10.3101 3.25H12.0601C13.0266 3.25 13.8101 3.98873 13.8101 4.9C13.8101 5.94282 14.9258 6.60581 15.8417 6.10723L15.9348 6.05659C16.7718 5.60096 17.8421 5.87135 18.3253 6.66054L19.2003 8.08948C19.6836 8.87866 19.3968 9.88778 18.5598 10.3434C17.6434 10.8422 17.6434 12.1578 18.5598 12.6566C19.3968 13.1122 19.6836 14.1213 19.2003 14.9105L18.3253 16.3395C17.8421 17.1286 16.7718 17.399 15.9348 16.9434L15.8417 16.8928C14.9258 16.3942 13.8101 17.0572 13.8101 18.1C13.8101 19.0113 13.0266 19.75 12.0601 19.75H10.3101C9.34355 19.75 8.56005 19.0113 8.56005 18.1C8.56005 17.0572 7.44429 16.3942 6.52839 16.8928L6.43536 16.9434C5.59835 17.3991 4.52806 17.1287 4.04481 16.3395L3.16981 14.9105C2.68656 14.1214 2.97334 13.1122 3.81035 12.6566C4.72669 12.1578 4.72669 10.8422 3.81036 10.3434C2.97334 9.88777 2.68656 8.87865 3.16981 8.08946L4.04481 6.66052C4.52806 5.87134 5.59835 5.60095 6.43536 6.05658L6.52839 6.10722C7.44429 6.6058 8.56005 5.94281 8.56005 4.9C8.56005 3.98873 9.34355 3.25 10.3101 3.25ZM11.1851 14.25C12.7038 14.25 13.9351 13.0188 13.9351 11.5C13.9351 9.98122 12.7038 8.75 11.1851 8.75C9.66628 8.75 8.43507 9.98122 8.43507 11.5C8.43507 13.0188 9.66628 14.25 11.1851 14.25Z" fill="#6C757D"/>
</svg>
